<?xml version="1.0" encoding="UTF-8"?>
<svg id="Layer_2" data-name="Layer 2" xmlns="http://www.w3.org/2000/svg" viewBox="0 0 16 16">
  <defs>
    <style>
      .cls-1 {
        fill: #f27890;
      }

      .cls-2 {
        fill: #2d394d;
      }
    </style>
  </defs>
  <g id="Layer_1-2" data-name="Layer 1">
    <rect class="cls-2" width="16" height="16" rx="2.58" ry="2.58"/>
    <g>
      <path class="cls-1" d="M14.62,8c0,2.01-1.65,3.41-3.32,3.41s-3.33-1.39-3.33-3.41,1.65-3.41,3.33-3.41,3.32,1.39,3.32,3.41Zm-5.15,0c0,1.22,.83,2.04,1.82,2.04s1.82-.82,1.82-2.04-.83-2.04-1.82-2.04-1.82,.82-1.82,2.04Z"/>
      <path class="cls-1" d="M7.39,9.82c.29,.3,.29,.78,0,1.07-.3,.29-.77,.29-1.07,0l-1.82-1.82-1.83,1.82c-.3,.29-.77,.29-1.07,0-.14-.14-.22-.34-.22-.53s.08-.39,.22-.54l1.83-1.82-1.83-1.83c-.29-.3-.29-.77,0-1.07,.15-.15,.34-.22,.54-.22s.38,.07,.53,.22l1.83,1.83,1.82-1.83c.3-.29,.77-.29,1.07,0,.29,.3,.29,.77,0,1.07l-1.82,1.83,1.82,1.82Z"/>
    </g>
  </g>
</svg>